<?xml version="1.0" encoding="UTF-8"?>
<svg id="Laag_1" data-name="Laag 1" xmlns="http://www.w3.org/2000/svg" viewBox="0 0 654.93 676.35">
  <defs>
    <style>
      .cls-1 {
        stroke-width: 0px;
      }

      .cls-1, .cls-2 {
        fill: #000;
      }

      .cls-3, .cls-2, .cls-4 {
        stroke-miterlimit: 10;
      }

      .cls-3, .cls-2, .cls-4, .cls-5 {
        stroke-width: 0px;
      }

      .cls-3, .cls-4, .cls-5 {
        stroke: red;
      }

      .cls-3, .cls-5 {
        fill: none;
      }

      .cls-2 {
        stroke: #000;
      }

      .cls-4 {
        fill: #fff;
      }

      .cls-5 {
        stroke-linecap: round;
        stroke-linejoin: round;
      }
    </style>
  </defs>
  <path class="cls-5" d="M11.62,676.35h42.52c.16,0,.28-.13.28-.28v-11.06c0-.28-.28,0,0,0h22.11c.28,0,0-.28,0,0v11.06c0,.16.13.28.28.28h22.68c.16,0,.28-.13.28-.28v-11.06c0-.28-.28,0,0,0h22.11c.28,0,0-.28,0,0v11.06c0,.16.13.28.28.28h22.68c.16,0,.28-.13.28-.28v-11.06c0-.28-.28,0,0,0h22.11c.28,0,0-.28,0,0v11.06c0,.16.13.28.28.28h53.86c.16,0,.28-.13.28-.28v-53.86c0-.16-.13-.28-.28-.28h-11.06c-.28,0,0,.28,0,0v-22.11c0-.28-.28,0,0,0h11.06c.16,0,.28-.13.28-.28v-22.68c0-.16-.13-.28-.28-.28h-11.06c-.28,0,0,.28,0,0v-22.11c0-.28-.28,0,0,0h11.06c.16,0,.28-.13.28-.28v-22.68c0-.16-.13-.28-.28-.28h-11.06c-.28,0,0,.28,0,0v-22.11c0-.28-.28,0,0,0h11.06c.16,0,.28-.13.28-.28v-53.86c0-.16-.13-.28-.28-.28h-53.86c-.16,0-.28.13-.28.28v11.06c0,.28.28,0,0,0h-22.11c-.28,0,0,.28,0,0v-11.06c0-.16-.13-.28-.28-.28h-22.68c-.16,0-.28.13-.28.28v11.06c0,.28.28,0,0,0h-22.11c-.28,0,0,.28,0,0v-11.06c0-.16-.13-.28-.28-.28h-22.68c-.16,0-.28.13-.28.28v11.06c0,.28.28,0,0,0h-22.11c-.28,0,0,.28,0,0v-11.06c0-.16-.13-.28-.28-.28H.28c-.16,0-.28.13-.28.28v53.86c0,.16.13.28.28.28h11.06c.28,0,0-.28,0,0v22.11c0,.28.28,0,0,0H.28c-.16,0-.28.13-.28.28v22.68c0,.16.13.28.28.28h11.06c.28,0,0-.28,0,0v22.11c0,.28.28,0,0,0H.28c-.16,0-.28.13-.28.28v22.68c0,.16.13.28.28.28h11.06c.28,0,0-.28,0,0v22.11c0,.28.28,0,0,0H.28c-.16,0-.28.13-.28.28v53.86c0,.16.13.28.28.28h11.34"/>
  <path class="cls-5" d="M238.96,676.35h42.52c.16,0,.28-.13.28-.28v-11.06c0-.28-.28,0,0,0h22.11c.28,0,0-.28,0,0v11.06c0,.16.13.28.28.28h22.68c.16,0,.28-.13.28-.28v-11.06c0-.28-.28,0,0,0h22.11c.28,0,0-.28,0,0v11.06c0,.16.13.28.28.28h22.68c.16,0,.28-.13.28-.28v-11.06c0-.28-.28,0,0,0h22.11c.28,0,0-.28,0,0v11.06c0,.16.13.28.28.28h42.52c.16,0,.28-.13.28-.28v-53.57c0-.28-.28,0,0,0h11.06c.16,0,.28-.13.28-.28v-22.68c0-.16-.13-.28-.28-.28h-11.06c-.28,0,0,.28,0,0v-22.11c0-.28-.28,0,0,0h11.06c.16,0,.28-.13.28-.28v-22.68c0-.16-.13-.28-.28-.28h-11.06c-.28,0,0,.28,0,0v-22.11c0-.28-.28,0,0,0h11.06c.16,0,.28-.13.28-.28v-22.68c0-.16-.13-.28-.28-.28h-11.06c-.28,0,0,.28,0,0v-53.57c0-.16-.13-.28-.28-.28h-42.52c-.16,0-.28.13-.28.28v11.06c0,.28.28,0,0,0h-22.11c-.28,0,0,.28,0,0v-11.06c0-.16-.13-.28-.28-.28h-22.68c-.16,0-.28.13-.28.28v11.06c0,.28.28,0,0,0h-22.11c-.28,0,0,.28,0,0v-11.06c0-.16-.13-.28-.28-.28h-22.68c-.16,0-.28.13-.28.28v11.06c0,.28.28,0,0,0h-22.11c-.28,0,0,.28,0,0v-11.06c0-.16-.13-.28-.28-.28h-42.52c-.16,0-.28.13-.28.28v53.57c0,.28.28,0,0,0h-11.06c-.16,0-.28.13-.28.28v22.68c0,.16.13.28.28.28h11.06c.28,0,0-.28,0,0v22.11c0,.28.28,0,0,0h-11.06c-.16,0-.28.13-.28.28v22.68c0,.16.13.28.28.28h11.06c.28,0,0-.28,0,0v22.11c0,.28.28,0,0,0h-11.06c-.16,0-.28.13-.28.28v22.68c0,.16.13.28.28.28h11.06c.28,0,0-.28,0,0v53.57c0,.16.13.28.28.28"/>
  <path class="cls-5" d="M238.96,449.01h42.52c.16,0,.28-.13.28-.28v-11.06c0-.28-.28,0,0,0h22.11c.28,0,0-.28,0,0v11.06c0,.16.13.28.28.28h22.68c.16,0,.28-.13.28-.28v-11.06c0-.28-.28,0,0,0h22.11c.28,0,0-.28,0,0v11.06c0,.16.13.28.28.28h22.68c.16,0,.28-.13.28-.28v-11.06c0-.28-.28,0,0,0h22.11c.28,0,0-.28,0,0v11.06c0,.16.13.28.28.28h42.52c.16,0,.28-.13.28-.28v-53.57c0-.28-.28,0,0,0h11.06c.16,0,.28-.13.28-.28v-22.68c0-.16-.13-.28-.28-.28h-11.06c-.28,0,0,.28,0,0v-22.11c0-.28-.28,0,0,0h11.06c.16,0,.28-.13.28-.28v-22.68c0-.16-.13-.28-.28-.28h-11.06c-.28,0,0,.28,0,0v-22.11c0-.28-.28,0,0,0h11.06c.16,0,.28-.13.28-.28v-22.68c0-.16-.13-.28-.28-.28h-11.06c-.28,0,0,.28,0,0v-53.57c0-.16-.13-.28-.28-.28h-42.52c-.16,0-.28.13-.28.28v11.06c0,.28.28,0,0,0h-22.11c-.28,0,0,.28,0,0v-11.06c0-.16-.13-.28-.28-.28h-22.68c-.16,0-.28.13-.28.28v11.06c0,.28.28,0,0,0h-22.11c-.28,0,0,.28,0,0v-11.06c0-.16-.13-.28-.28-.28h-22.68c-.16,0-.28.13-.28.28v11.06c0,.28.28,0,0,0h-22.11c-.28,0,0,.28,0,0v-11.06c0-.16-.13-.28-.28-.28h-42.52c-.16,0-.28.13-.28.28v53.57c0,.28.28,0,0,0h-11.06c-.16,0-.28.13-.28.28v22.68c0,.16.13.28.28.28h11.06c.28,0,0-.28,0,0v22.11c0,.28.28,0,0,0h-11.06c-.16,0-.28.13-.28.28v22.68c0,.16.13.28.28.28h11.06c.28,0,0-.28,0,0v22.11c0,.28.28,0,0,0h-11.06c-.16,0-.28.13-.28.28v22.68c0,.16.13.28.28.28h11.06c.28,0,0-.28,0,0v53.57c0,.16.13.28.28.28"/>
  <path class="cls-5" d="M11.62,449.01h42.52c.16,0,.28-.13.28-.28v-11.06c0-.28-.28,0,0,0h22.11c.28,0,0-.28,0,0v11.06c0,.16.13.28.28.28h22.68c.16,0,.28-.13.28-.28v-11.06c0-.28-.28,0,0,0h22.11c.28,0,0-.28,0,0v11.06c0,.16.13.28.28.28h22.68c.16,0,.28-.13.28-.28v-11.06c0-.28-.28,0,0,0h22.11c.28,0,0-.28,0,0v11.06c0,.16.13.28.28.28h53.86c.16,0,.28-.13.28-.28v-53.86c0-.16-.13-.28-.28-.28h-11.06c-.28,0,0,.28,0,0v-22.11c0-.28-.28,0,0,0h11.06c.16,0,.28-.13.28-.28v-22.68c0-.16-.13-.28-.28-.28h-11.06c-.28,0,0,.28,0,0v-22.11c0-.28-.28,0,0,0h11.06c.16,0,.28-.13.28-.28v-22.68c0-.16-.13-.28-.28-.28h-11.06c-.28,0,0,.28,0,0v-22.11c0-.28-.28,0,0,0h11.06c.16,0,.28-.13.28-.28v-53.86c0-.16-.13-.28-.28-.28h-53.86c-.16,0-.28.13-.28.28v11.06c0,.28.28,0,0,0h-22.11c-.28,0,0,.28,0,0v-11.06c0-.16-.13-.28-.28-.28h-22.68c-.16,0-.28.13-.28.28v11.06c0,.28.28,0,0,0h-22.11c-.28,0,0,.28,0,0v-11.06c0-.16-.13-.28-.28-.28h-22.68c-.16,0-.28.13-.28.28v11.06c0,.28.28,0,0,0h-22.11c-.28,0,0,.28,0,0v-11.06c0-.16-.13-.28-.28-.28H.28c-.16,0-.28.13-.28.28v53.86c0,.16.13.28.28.28h11.06c.28,0,0-.28,0,0v22.11c0,.28.28,0,0,0H.28c-.16,0-.28.13-.28.28v22.68c0,.16.13.28.28.28h11.06c.28,0,0-.28,0,0v22.11c0,.28.28,0,0,0H.28c-.16,0-.28.13-.28.28v22.68c0,.16.13.28.28.28h11.06c.28,0,0-.28,0,0v22.11c0,.28.28,0,0,0H.28c-.16,0-.28.13-.28.28v53.86c0,.16.13.28.28.28h11.34"/>
  <path class="cls-5" d="M11.62,210.33h42.24c.28,0,0-.28,0,0v11.06c0,.16.13.28.28.28h22.68c.16,0,.28-.13.28-.28v-11.06c0-.28-.28,0,0,0h22.11c.28,0,0-.28,0,0v11.06c0,.16.13.28.28.28h22.68c.16,0,.28-.13.28-.28v-11.06c0-.28-.28,0,0,0h22.11c.28,0,0-.28,0,0v11.06c0,.16.13.28.28.28h22.68c.16,0,.28-.13.28-.28v-11.06c0-.28-.28,0,0,0h42.24c.16,0,.28-.13.28-.28v-42.24c0-.28-.28,0,0,0h11.06c.16,0,.28-.13.28-.28v-22.68c0-.16-.13-.28-.28-.28h-11.06c-.28,0,0,.28,0,0v-22.11c0-.28-.28,0,0,0h11.06c.16,0,.28-.13.28-.28v-22.68c0-.16-.13-.28-.28-.28h-11.06c-.28,0,0,.28,0,0v-22.11c0-.28-.28,0,0,0h11.06c.16,0,.28-.13.28-.28v-22.68c0-.16-.13-.28-.28-.28h-11.06c-.28,0,0,.28,0,0V11.62c0-.16-.13-.28-.28-.28h-42.24c-.28,0,0,.28,0,0V.28c0-.16-.13-.28-.28-.28h-22.68c-.16,0-.28.13-.28.28v11.06c0,.28.28,0,0,0h-22.11c-.28,0,0,.28,0,0V.28c0-.16-.13-.28-.28-.28h-22.68c-.16,0-.28.13-.28.28v11.06c0,.28.28,0,0,0h-22.11c-.28,0,0,.28,0,0V.28c0-.16-.13-.28-.28-.28h-22.68c-.16,0-.28.13-.28.28v11.06c0,.28.28,0,0,0H11.62c-.16,0-.28.13-.28.28v42.24c0,.28.28,0,0,0H.28c-.16,0-.28.13-.28.28v22.68c0,.16.13.28.28.28h11.06c.28,0,0-.28,0,0v22.11c0,.28.28,0,0,0H.28c-.16,0-.28.13-.28.28v22.68c0,.16.13.28.28.28h11.06c.28,0,0-.28,0,0v22.11c0,.28.28,0,0,0H.28c-.16,0-.28.13-.28.28v22.68c0,.16.13.28.28.28h11.06c.28,0,0-.28,0,0v42.24c0,.16.13.28.28.28"/>
  <path class="cls-5" d="M238.96,210.33h42.24c.28,0,0-.28,0,0v11.06c0,.16.13.28.28.28h22.68c.16,0,.28-.13.28-.28v-11.06c0-.28-.28,0,0,0h22.11c.28,0,0-.28,0,0v11.06c0,.16.13.28.28.28h22.68c.16,0,.28-.13.28-.28v-11.06c0-.28-.28,0,0,0h22.11c.28,0,0-.28,0,0v11.06c0,.16.13.28.28.28h22.68c.16,0,.28-.13.28-.28v-11.06c0-.28-.28,0,0,0h42.24c.16,0,.28-.13.28-.28v-42.24c0-.28-.28,0,0,0h11.06c.16,0,.28-.13.28-.28v-22.68c0-.16-.13-.28-.28-.28h-11.06c-.28,0,0,.28,0,0v-22.11c0-.28-.28,0,0,0h11.06c.16,0,.28-.13.28-.28v-22.68c0-.16-.13-.28-.28-.28h-11.06c-.28,0,0,.28,0,0v-22.11c0-.28-.28,0,0,0h11.06c.16,0,.28-.13.28-.28v-22.68c0-.16-.13-.28-.28-.28h-11.06c-.28,0,0,.28,0,0V11.62c0-.16-.13-.28-.28-.28h-42.24c-.28,0,0,.28,0,0V.28c0-.16-.13-.28-.28-.28h-22.68c-.16,0-.28.13-.28.28v11.06c0,.28.28,0,0,0h-22.11c-.28,0,0,.28,0,0V.28c0-.16-.13-.28-.28-.28h-22.68c-.16,0-.28.13-.28.28v11.06c0,.28.28,0,0,0h-22.11c-.28,0,0,.28,0,0V.28c0-.16-.13-.28-.28-.28h-22.68c-.16,0-.28.13-.28.28v11.06c0,.28.28,0,0,0h-42.24c-.16,0-.28.13-.28.28v42.24c0,.28.28,0,0,0h-11.06c-.16,0-.28.13-.28.28v22.68c0,.16.13.28.28.28h11.06c.28,0,0-.28,0,0v22.11c0,.28.28,0,0,0h-11.06c-.16,0-.28.13-.28.28v22.68c0,.16.13.28.28.28h11.06c.28,0,0-.28,0,0v22.11c0,.28.28,0,0,0h-11.06c-.16,0-.28.13-.28.28v22.68c0,.16.13.28.28.28h11.06c.28,0,0-.28,0,0v42.24c0,.16.13.28.28.28"/>
  <path class="cls-1" d="M340.03,14.32c-.22-.01-.49,0-.79.05-1.65.28-2.53,1.49-2.71,2.77h.04c.37-.49,1.02-.9,1.88-.9,1.38,0,2.35,1,2.35,2.52,0,1.43-.97,2.75-2.59,2.75s-2.76-1.3-2.76-3.32c0-1.54.55-2.75,1.32-3.51.65-.64,1.51-1.03,2.49-1.15.31-.05.58-.06.77-.06v.86ZM339.73,18.82c0-1.12-.64-1.79-1.61-1.79-.64,0-1.22.4-1.51.96-.07.12-.12.28-.12.47.02,1.28.61,2.23,1.71,2.23.91,0,1.52-.76,1.52-1.87Z"/>
  <path class="cls-1" d="M428.72,101.71v.7l-3.39,7.1h-1.09l3.38-6.9v-.02h-3.81v-.88h4.92Z"/>
  <path class="cls-1" d="M334.63,204.59c0-.98.59-1.68,1.55-2.09v-.04c-.88-.41-1.25-1.08-1.25-1.75,0-1.24,1.04-2.08,2.41-2.08,1.51,0,2.27.95,2.27,1.92,0,.66-.32,1.37-1.28,1.82v.04c.97.38,1.57,1.07,1.57,2.02,0,1.35-1.16,2.27-2.65,2.27-1.63,0-2.62-.97-2.62-2.11ZM338.83,204.54c0-.95-.66-1.4-1.71-1.7-.91.26-1.4.86-1.4,1.61-.04.79.56,1.49,1.56,1.49s1.56-.59,1.56-1.39ZM335.93,200.65c0,.78.59,1.2,1.49,1.44.67-.23,1.19-.71,1.19-1.42,0-.62-.37-1.27-1.32-1.27-.88,0-1.36.58-1.36,1.25Z"/>
  <path class="cls-1" d="M249.59,103.93h-2.97l-.3,2c.18-.02.35-.05.64-.05.6,0,1.2.13,1.68.42.61.35,1.12,1.02,1.12,2,0,1.52-1.21,2.66-2.9,2.66-.85,0-1.57-.24-1.94-.48l.26-.8c.32.19.96.43,1.67.43,1,0,1.85-.65,1.85-1.69-.01-1.01-.68-1.73-2.24-1.73-.44,0-.79.05-1.08.08l.5-3.74h3.73v.89Z"/>
  <path class="cls-1" d="M115.97,415.94c-.22-.01-.49,0-.79.05-1.66.28-2.53,1.49-2.71,2.77h.04c.37-.49,1.02-.9,1.88-.9,1.38,0,2.35,1,2.35,2.52,0,1.43-.97,2.75-2.59,2.75s-2.76-1.29-2.76-3.32c0-1.54.55-2.75,1.32-3.51.65-.64,1.51-1.03,2.49-1.15.31-.05.58-.06.77-.06v.86ZM115.67,420.44c0-1.12-.64-1.79-1.61-1.79-.64,0-1.22.4-1.51.96-.07.12-.12.28-.12.47.02,1.28.61,2.23,1.71,2.23.91,0,1.52-.76,1.52-1.87Z"/>
  <path class="cls-1" d="M26.6,336.3h-.02l-1.36.73-.2-.8,1.7-.91h.9v7.8h-1.02v-6.81Z"/>
  <path class="cls-1" d="M106.01,252.84c.23.02.49,0,.85-.04.61-.08,1.19-.34,1.63-.76.52-.47.89-1.15,1.03-2.07h-.04c-.43.53-1.06.84-1.83.84-1.4,0-2.3-1.06-2.3-2.39,0-1.48,1.07-2.77,2.66-2.77s2.58,1.3,2.58,3.29c0,1.72-.58,2.91-1.34,3.66-.6.59-1.43.95-2.27,1.04-.38.06-.72.07-.97.06v-.86ZM106.39,248.35c0,.97.59,1.65,1.5,1.65.71,0,1.26-.35,1.54-.82.06-.1.1-.22.1-.38,0-1.33-.49-2.35-1.6-2.35-.9,0-1.54.79-1.54,1.9Z"/>
  <path class="cls-1" d="M193.14,343.11v-.65l.83-.8c1.99-1.89,2.89-2.9,2.9-4.08,0-.79-.38-1.52-1.55-1.52-.71,0-1.3.36-1.66.66l-.34-.74c.54-.46,1.31-.79,2.21-.79,1.68,0,2.39,1.15,2.39,2.27,0,1.44-1.04,2.6-2.69,4.19l-.62.58v.02h3.5v.88h-4.98Z"/>
  <path class="cls-1" d="M248.8,343.11v-.65l.83-.8c1.99-1.89,2.89-2.9,2.9-4.08,0-.79-.38-1.52-1.55-1.52-.71,0-1.3.36-1.66.66l-.34-.74c.54-.46,1.31-.79,2.21-.79,1.68,0,2.39,1.15,2.39,2.27,0,1.44-1.04,2.6-2.69,4.19l-.62.58v.02h3.5v.88h-4.98Z"/>
  <path class="cls-1" d="M335.78,252.84c.23.02.49,0,.85-.04.61-.08,1.19-.34,1.63-.76.52-.47.89-1.15,1.03-2.07h-.04c-.43.53-1.06.84-1.83.84-1.4,0-2.3-1.06-2.3-2.39,0-1.48,1.07-2.77,2.66-2.77s2.58,1.3,2.58,3.29c0,1.72-.58,2.91-1.34,3.66-.6.59-1.43.95-2.27,1.04-.38.06-.72.07-.97.06v-.86ZM336.17,248.35c0,.97.59,1.65,1.5,1.65.71,0,1.26-.35,1.54-.82.06-.1.1-.22.1-.38,0-1.33-.49-2.35-1.59-2.35-.9,0-1.54.79-1.54,1.9Z"/>
  <path class="cls-1" d="M424.6,341.77c.3.19,1,.49,1.73.49,1.36,0,1.78-.86,1.76-1.51-.01-1.09-1-1.56-2.01-1.56h-.59v-.79h.59c.77,0,1.74-.4,1.74-1.32,0-.62-.4-1.18-1.37-1.18-.62,0-1.22.28-1.56.52l-.28-.77c.41-.3,1.2-.6,2.04-.6,1.54,0,2.23.91,2.23,1.86,0,.8-.48,1.49-1.44,1.83v.02c.96.19,1.74.91,1.74,2,0,1.25-.97,2.34-2.84,2.34-.88,0-1.64-.28-2.03-.53l.29-.82Z"/>
  <path class="cls-1" d="M346.4,419.53v.7l-3.39,7.1h-1.09l3.38-6.9v-.02h-3.81v-.88h4.92Z"/>
  <path class="cls-1" d="M108.31,479.56c.23.02.49,0,.85-.04.61-.08,1.19-.34,1.63-.76.52-.47.89-1.15,1.03-2.08h-.04c-.43.53-1.06.84-1.83.84-1.4,0-2.3-1.06-2.3-2.39,0-1.48,1.07-2.77,2.66-2.77s2.58,1.29,2.58,3.29c0,1.71-.58,2.91-1.34,3.66-.6.59-1.43.95-2.27,1.04-.38.06-.72.07-.97.06v-.86ZM108.69,475.07c0,.97.59,1.66,1.5,1.66.71,0,1.26-.35,1.54-.82.06-.1.1-.22.1-.38,0-1.33-.49-2.35-1.6-2.35-.9,0-1.54.79-1.54,1.89Z"/>
  <path class="cls-1" d="M108.09,650.34c0-.98.59-1.68,1.55-2.09v-.04c-.88-.41-1.25-1.08-1.25-1.75,0-1.24,1.04-2.08,2.41-2.08,1.51,0,2.27.95,2.27,1.92,0,.66-.32,1.37-1.28,1.82v.04c.97.38,1.57,1.07,1.57,2.01,0,1.36-1.16,2.27-2.65,2.27-1.63,0-2.61-.97-2.61-2.11ZM112.29,650.29c0-.95-.66-1.4-1.72-1.7-.91.26-1.4.86-1.4,1.61-.04.79.56,1.49,1.56,1.49s1.56-.59,1.56-1.39ZM109.39,646.39c0,.78.59,1.2,1.49,1.44.67-.23,1.19-.71,1.19-1.42,0-.62-.37-1.27-1.32-1.27-.88,0-1.35.58-1.35,1.25Z"/>
  <path class="cls-1" d="M27.65,570.06c.3.19,1,.49,1.73.49,1.36,0,1.77-.86,1.76-1.51-.01-1.09-1-1.56-2.02-1.56h-.59v-.79h.59c.77,0,1.74-.4,1.74-1.32,0-.62-.4-1.18-1.37-1.18-.62,0-1.22.28-1.56.52l-.28-.77c.41-.3,1.2-.6,2.04-.6,1.54,0,2.23.91,2.23,1.86,0,.8-.48,1.49-1.44,1.83v.02c.96.19,1.74.91,1.74,2,0,1.25-.97,2.34-2.84,2.34-.88,0-1.64-.28-2.03-.53l.29-.82Z"/>
  <path class="cls-1" d="M196.95,571.4v-2.12h-3.62v-.7l3.48-4.98h1.14v4.85h1.09v.83h-1.09v2.12h-1ZM196.95,568.45v-2.6c0-.41.01-.82.04-1.22h-.04c-.24.46-.43.79-.65,1.15l-1.91,2.65v.02h2.55Z"/>
  <path class="cls-1" d="M252.6,565.51v-2.12h-3.62v-.7l3.48-4.98h1.14v4.85h1.09v.83h-1.09v2.12h-1ZM252.6,562.56v-2.6c0-.41.01-.82.04-1.22h-.04c-.24.46-.43.79-.65,1.15l-1.91,2.65v.02h2.55Z"/>
  <path class="cls-1" d="M336.6,486.89c.23.02.49,0,.85-.04.61-.08,1.19-.34,1.63-.76.52-.47.89-1.15,1.03-2.08h-.04c-.43.53-1.06.84-1.83.84-1.4,0-2.3-1.06-2.3-2.39,0-1.48,1.07-2.77,2.66-2.77s2.58,1.29,2.58,3.29c0,1.71-.58,2.91-1.34,3.66-.6.59-1.43.95-2.27,1.04-.38.06-.72.07-.97.06v-.86ZM336.98,482.41c0,.97.59,1.66,1.5,1.66.71,0,1.26-.35,1.54-.82.06-.1.1-.22.1-.38,0-1.33-.49-2.35-1.59-2.35-.9,0-1.54.79-1.54,1.89Z"/>
  <path class="cls-1" d="M427.14,564.59h-.02l-1.36.73-.2-.8,1.7-.91h.9v7.8h-1.02v-6.81Z"/>
  <path class="cls-1" d="M341.13,645.54h-2.97l-.3,2c.18-.02.35-.05.64-.05.6,0,1.2.13,1.68.42.61.35,1.12,1.02,1.12,2,0,1.52-1.21,2.66-2.9,2.66-.85,0-1.57-.24-1.94-.48l.26-.8c.32.19.96.43,1.67.43,1,0,1.85-.65,1.85-1.69-.01-1.01-.68-1.73-2.24-1.73-.44,0-.79.05-1.08.08l.5-3.74h3.73v.89Z"/>
  <path class="cls-1" d="M106.4,22.93c.23.02.49,0,.85-.04.61-.08,1.19-.34,1.63-.76.52-.47.89-1.15,1.03-2.07h-.04c-.43.53-1.06.84-1.83.84-1.4,0-2.3-1.06-2.3-2.39,0-1.48,1.07-2.77,2.66-2.77s2.58,1.3,2.58,3.29c0,1.72-.58,2.91-1.34,3.66-.6.59-1.43.95-2.27,1.04-.38.06-.72.07-.97.06v-.86ZM106.78,18.44c0,.97.59,1.65,1.5,1.65.71,0,1.26-.35,1.54-.82.06-.1.1-.22.1-.38,0-1.33-.49-2.35-1.6-2.35-.9,0-1.54.79-1.54,1.9Z"/>
  <path class="cls-1" d="M23.4,116.69c.23.02.49,0,.85-.04.61-.08,1.19-.34,1.63-.76.52-.47.89-1.15,1.03-2.07h-.04c-.43.53-1.06.84-1.83.84-1.4,0-2.3-1.06-2.3-2.39,0-1.48,1.07-2.77,2.66-2.77s2.58,1.3,2.58,3.29c0,1.72-.58,2.91-1.34,3.66-.6.59-1.43.95-2.27,1.04-.38.06-.72.07-.97.06v-.86ZM23.79,112.21c0,.97.59,1.65,1.5,1.65.71,0,1.26-.35,1.54-.82.06-.1.1-.22.1-.38,0-1.33-.49-2.35-1.6-2.35-.9,0-1.54.79-1.54,1.9Z"/>
  <path class="cls-1" d="M197.48,116.69c.23.02.49,0,.85-.04.61-.08,1.19-.34,1.63-.76.52-.47.89-1.15,1.03-2.07h-.04c-.43.53-1.06.84-1.83.84-1.4,0-2.3-1.06-2.3-2.39,0-1.48,1.07-2.77,2.66-2.77s2.58,1.3,2.58,3.29c0,1.72-.58,2.91-1.34,3.66-.6.59-1.43.95-2.27,1.04-.38.06-.72.07-.97.06v-.86ZM197.86,112.21c0,.97.59,1.65,1.5,1.65.71,0,1.26-.35,1.54-.82.06-.1.1-.22.1-.38,0-1.33-.49-2.35-1.6-2.35-.9,0-1.54.79-1.54,1.9Z"/>
  <path class="cls-1" d="M112.54,193.23c.23.02.49,0,.85-.04.61-.08,1.19-.34,1.63-.76.52-.47.89-1.15,1.03-2.07h-.04c-.43.53-1.06.84-1.83.84-1.4,0-2.3-1.06-2.3-2.39,0-1.48,1.07-2.77,2.66-2.77s2.58,1.3,2.58,3.29c0,1.72-.58,2.91-1.34,3.66-.6.59-1.43.95-2.27,1.04-.38.06-.72.07-.97.06v-.86ZM112.93,188.74c0,.97.59,1.65,1.5,1.65.71,0,1.26-.35,1.54-.82.06-.1.1-.22.1-.38,0-1.33-.49-2.35-1.6-2.35-.9,0-1.54.79-1.54,1.9Z"/>
  <g>
    <path class="cls-1" d="M97.7,567.41c0-.68-.01-1.27-.05-1.81h.92l.04,1.14h.05c.26-.78.9-1.27,1.61-1.27.12,0,.2.01.3.04v1c-.11-.02-.22-.04-.36-.04-.74,0-1.27.56-1.42,1.36-.02.14-.05.31-.05.49v3.09h-1.04v-3.99Z"/>
    <path class="cls-1" d="M106.76,568.45c0,2.15-1.49,3.08-2.89,3.08-1.57,0-2.78-1.15-2.78-2.99,0-1.94,1.27-3.08,2.88-3.08s2.79,1.21,2.79,2.99ZM102.15,568.51c0,1.27.73,2.23,1.76,2.23s1.76-.95,1.76-2.25c0-.98-.49-2.23-1.74-2.23s-1.79,1.15-1.79,2.25Z"/>
    <path class="cls-1" d="M113.35,568.45c0,2.15-1.49,3.08-2.89,3.08-1.57,0-2.78-1.15-2.78-2.99,0-1.94,1.27-3.08,2.88-3.08s2.79,1.21,2.79,2.99ZM108.74,568.51c0,1.27.73,2.23,1.76,2.23s1.76-.95,1.76-2.25c0-.98-.49-2.23-1.74-2.23s-1.79,1.15-1.79,2.25Z"/>
    <path class="cls-1" d="M119.7,562.89v7.02c0,.52.01,1.1.05,1.5h-.95l-.05-1.01h-.02c-.32.65-1.03,1.14-1.98,1.14-1.4,0-2.48-1.19-2.48-2.95-.01-1.93,1.19-3.12,2.6-3.12.89,0,1.49.42,1.75.89h.02v-3.47h1.06ZM118.64,567.96c0-.13-.01-.31-.05-.44-.16-.67-.73-1.22-1.52-1.22-1.09,0-1.74.96-1.74,2.24,0,1.17.58,2.15,1.72,2.15.71,0,1.35-.47,1.55-1.26.04-.14.05-.29.05-.46v-1.01Z"/>
  </g>
  <g>
    <path class="cls-1" d="M104.26,110.81c0,2.15-1.49,3.08-2.89,3.08-1.57,0-2.78-1.15-2.78-2.99,0-1.94,1.27-3.08,2.88-3.08s2.79,1.21,2.79,2.99ZM99.66,110.87c0,1.27.73,2.23,1.76,2.23s1.76-.95,1.76-2.25c0-.98-.49-2.23-1.74-2.23s-1.79,1.15-1.79,2.25Z"/>
    <path class="cls-1" d="M105.6,109.77c0-.68-.01-1.27-.05-1.81h.92l.04,1.14h.05c.26-.78.9-1.27,1.61-1.27.12,0,.2.01.3.04v1c-.11-.02-.22-.04-.36-.04-.74,0-1.27.56-1.42,1.36-.02.14-.05.31-.05.49v3.09h-1.04v-3.99Z"/>
    <path class="cls-1" d="M112.67,113.76l-.08-.73h-.04c-.32.46-.95.86-1.78.86-1.17,0-1.77-.83-1.77-1.67,0-1.4,1.25-2.17,3.49-2.16v-.12c0-.48-.13-1.34-1.32-1.34-.54,0-1.1.17-1.51.43l-.24-.7c.48-.31,1.17-.52,1.91-.52,1.78,0,2.21,1.21,2.21,2.37v2.17c0,.5.02,1,.1,1.39h-.96ZM112.52,110.8c-1.15-.02-2.46.18-2.46,1.31,0,.68.46,1.01,1,1.01.76,0,1.24-.48,1.4-.97.04-.11.06-.23.06-.34v-1.01Z"/>
    <path class="cls-1" d="M115.25,109.53c0-.6-.01-1.09-.05-1.57h.94l.06.96h.02c.29-.55.96-1.09,1.92-1.09.8,0,2.05.48,2.05,2.47v3.47h-1.05v-3.35c0-.94-.35-1.71-1.34-1.71-.7,0-1.24.49-1.42,1.08-.05.13-.07.31-.07.49v3.49h-1.05v-4.23Z"/>
    <path class="cls-1" d="M120.49,115.44c.48-.04.9-.17,1.15-.44.29-.34.4-.79.4-2.18v-4.86h1.05v5.27c0,1.13-.18,1.86-.7,2.39-.47.47-1.24.66-1.8.66l-.11-.83ZM123.21,106.33c.01.35-.24.65-.66.65-.4,0-.65-.3-.65-.65,0-.37.28-.66.67-.66s.64.29.64.66Z"/>
    <path class="cls-1" d="M125.41,111.05c.02,1.43.94,2.01,1.99,2.01.76,0,1.21-.13,1.61-.3l.18.76c-.37.17-1.01.36-1.93.36-1.79,0-2.85-1.18-2.85-2.93s1.03-3.13,2.72-3.13c1.89,0,2.4,1.67,2.4,2.73,0,.22-.02.38-.04.49h-4.08ZM128.5,110.3c.01-.67-.28-1.71-1.46-1.71-1.07,0-1.54.98-1.62,1.71h3.08Z"/>
  </g>
  <g>
    <path class="cls-1" d="M106.68,336.92c-.02.42-.05.89-.05,1.6v3.37c0,1.33-.26,2.15-.83,2.65-.56.53-1.38.7-2.11.7s-1.46-.17-1.93-.48l.26-.8c.38.24.98.46,1.7.46,1.08,0,1.87-.56,1.87-2.03v-.65h-.02c-.32.54-.95.97-1.85.97-1.44,0-2.47-1.22-2.47-2.83,0-1.97,1.28-3.08,2.61-3.08,1.01,0,1.56.53,1.81,1.01h.02l.05-.88h.92ZM105.59,339.21c0-.18-.01-.34-.06-.48-.19-.61-.71-1.12-1.48-1.12-1.01,0-1.73.85-1.73,2.2,0,1.14.58,2.09,1.72,2.09.65,0,1.24-.41,1.46-1.08.06-.18.08-.38.08-.56v-1.04Z"/>
    <path class="cls-1" d="M108.32,338.73c0-.68-.01-1.27-.05-1.81h.92l.04,1.14h.05c.26-.78.9-1.27,1.61-1.27.12,0,.2.01.3.04v1c-.11-.02-.22-.04-.36-.04-.74,0-1.27.56-1.42,1.36-.02.14-.05.31-.05.49v3.09h-1.04v-3.99Z"/>
    <path class="cls-1" d="M117.37,339.78c0,2.15-1.49,3.08-2.89,3.08-1.57,0-2.78-1.15-2.78-2.99,0-1.94,1.27-3.08,2.88-3.08s2.79,1.21,2.79,2.99ZM112.77,339.83c0,1.27.73,2.23,1.76,2.23s1.76-.95,1.76-2.25c0-.98-.49-2.23-1.74-2.23s-1.79,1.15-1.79,2.25Z"/>
    <path class="cls-1" d="M119.3,340.02c.02,1.43.94,2.01,1.99,2.01.76,0,1.21-.13,1.61-.3l.18.76c-.37.17-1.01.36-1.93.36-1.79,0-2.85-1.18-2.85-2.93s1.03-3.13,2.72-3.13c1.9,0,2.4,1.67,2.4,2.73,0,.22-.02.38-.04.49h-4.08ZM122.39,339.26c.01-.67-.28-1.71-1.46-1.71-1.07,0-1.54.98-1.62,1.71h3.08Z"/>
    <path class="cls-1" d="M124.72,338.49c0-.6-.01-1.09-.05-1.57h.94l.06.96h.02c.29-.55.96-1.09,1.92-1.09.8,0,2.05.48,2.05,2.47v3.47h-1.06v-3.35c0-.94-.35-1.71-1.34-1.71-.7,0-1.24.49-1.42,1.08-.05.13-.07.31-.07.49v3.49h-1.06v-4.23Z"/>
    <path class="cls-1" d="M108.53,353.58c-.06-1.13-.13-2.48-.12-3.49h-.04c-.28.95-.61,1.95-1.02,3.07l-1.43,3.92h-.79l-1.31-3.85c-.38-1.14-.71-2.18-.94-3.14h-.02c-.02,1.01-.08,2.36-.16,3.57l-.22,3.47h-1l.56-8.08h1.33l1.38,3.91c.34,1,.61,1.88.82,2.72h.04c.2-.82.49-1.7.85-2.72l1.44-3.91h1.33l.5,8.08h-1.02l-.2-3.55Z"/>
    <path class="cls-1" d="M112.65,349.69c.01.36-.25.65-.67.65-.37,0-.64-.29-.64-.65s.28-.66.66-.66.65.29.65.66ZM111.47,357.13v-5.8h1.06v5.8h-1.06Z"/>
    <path class="cls-1" d="M118.42,356.91c-.28.14-.89.34-1.67.34-1.75,0-2.89-1.19-2.89-2.96s1.22-3.08,3.12-3.08c.62,0,1.18.16,1.46.3l-.24.82c-.25-.14-.65-.28-1.22-.28-1.33,0-2.05.98-2.05,2.2,0,1.34.86,2.17,2.02,2.17.6,0,1-.16,1.3-.29l.18.79Z"/>
    <path class="cls-1" d="M119.66,353.13c0-.68-.01-1.27-.05-1.81h.92l.04,1.14h.05c.26-.78.9-1.27,1.61-1.27.12,0,.2.01.3.04v1c-.11-.02-.22-.04-.36-.04-.74,0-1.27.56-1.42,1.36-.02.14-.05.31-.05.49v3.09h-1.04v-3.99Z"/>
    <path class="cls-1" d="M128.71,354.18c0,2.15-1.49,3.08-2.89,3.08-1.57,0-2.78-1.15-2.78-2.99,0-1.94,1.27-3.08,2.88-3.08s2.79,1.21,2.79,2.99ZM124.11,354.24c0,1.27.73,2.23,1.76,2.23s1.76-.95,1.76-2.25c0-.98-.49-2.23-1.74-2.23s-1.79,1.15-1.79,2.25Z"/>
    <path class="cls-1" d="M130,357.13c.02-.4.05-.98.05-1.5v-7.02h1.04v3.65h.02c.37-.65,1.04-1.07,1.98-1.07,1.44,0,2.46,1.2,2.45,2.96,0,2.08-1.31,3.11-2.6,3.11-.84,0-1.51-.32-1.94-1.09h-.04l-.05.96h-.91ZM131.09,354.8c0,.13.02.26.05.38.2.73.82,1.24,1.58,1.24,1.1,0,1.76-.9,1.76-2.23,0-1.16-.6-2.16-1.73-2.16-.72,0-1.39.49-1.61,1.3-.02.12-.06.26-.06.43v1.04Z"/>
    <path class="cls-1" d="M138.05,349.69c.01.36-.25.65-.67.65-.37,0-.64-.29-.64-.65s.28-.66.66-.66.65.29.65.66ZM136.88,357.13v-5.8h1.06v5.8h-1.06Z"/>
    <path class="cls-1" d="M140.96,349.65v1.67h1.51v.8h-1.51v3.13c0,.72.2,1.13.79,1.13.28,0,.48-.04.61-.07l.05.79c-.2.08-.53.14-.94.14-.49,0-.89-.16-1.14-.44-.3-.31-.41-.83-.41-1.51v-3.17h-.9v-.8h.9v-1.39l1.03-.28Z"/>
  </g>
  <rect class="cls-2" x="248.88" y="117.44" width="178.58" height="76.54" transform="translate(676.35 311.41) rotate(180)"/>
  <rect class="cls-4" x="250.3" y="140.15" width="42.52" height="28.35" transform="translate(117.24 425.88) rotate(-90)"/>
  <path class="cls-1" d="M113.09,24.87v.78h-8.85v-.78h8.85Z"/>
  <path class="cls-1" d="M203.86,118.98v.78h-8.85v-.78h8.85Z"/>
  <path class="cls-1" d="M118.92,195.23v.78h-8.85v-.78h8.85Z"/>
  <path class="cls-1" d="M29.78,119.37v.78h-8.85v-.78h8.85Z"/>
  <path class="cls-1" d="M112.38,255.11v.78h-8.85v-.78h8.85Z"/>
  <path class="cls-1" d="M341.69,255.5v.78h-8.85v-.78h8.85Z"/>
  <path class="cls-1" d="M342.6,489.61v.78h-8.85v-.78h8.85Z"/>
  <path class="cls-1" d="M114.68,483.06v.78h-8.85v-.78h8.85Z"/>
  <polygon class="cls-3" points="476.35 10.75 476.35 52.11 493.5 52.01 493.5 63.07 516.74 63.07 516.74 52.01 555.72 52.01 555.72 63.07 578.96 63.07 578.96 52.01 615.29 52.01 615.29 63.07 638.54 63.07 638.54 52.01 654.93 52.11 654.93 10.75 476.35 10.75"/>
  <rect class="cls-3" x="266.08" y="99.01" width="23.24" height="11.34"/>
  <rect class="cls-3" x="328.21" y="99.01" width="23.24" height="11.34"/>
  <rect class="cls-3" x="387.82" y="99.01" width="23.24" height="11.34"/>
  <rect class="cls-3" x="38.74" y="605.08" width="23.24" height="11.34"/>
  <rect class="cls-3" x="100.87" y="605.08" width="23.24" height="11.34"/>
  <rect class="cls-3" x="160.48" y="605.08" width="23.24" height="11.34"/>
  <polygon class="cls-3" points="474.29 72.85 474.29 114.22 491.44 114.12 491.44 125.17 514.68 125.17 514.68 114.12 553.66 114.12 553.66 125.17 576.9 125.17 576.9 114.12 613.23 114.12 613.23 125.17 636.48 125.17 636.48 114.12 652.87 114.22 652.87 72.85 474.29 72.85"/>
  <g>
    <path class="cls-1" d="M104.41,289.11h1.06v8.52h-1.06v-8.52Z"/>
    <path class="cls-1" d="M112.49,294.68c0,2.15-1.49,3.08-2.89,3.08-1.57,0-2.78-1.15-2.78-2.99,0-1.94,1.27-3.08,2.88-3.08s2.79,1.21,2.79,2.99ZM107.89,294.74c0,1.27.73,2.23,1.76,2.23s1.76-.95,1.76-2.25c0-.98-.49-2.23-1.74-2.23s-1.79,1.15-1.79,2.25Z"/>
    <path class="cls-1" d="M118.83,291.82c-.02.42-.05.89-.05,1.6v3.37c0,1.33-.26,2.15-.83,2.65-.56.53-1.38.7-2.11.7s-1.46-.17-1.93-.48l.26-.8c.38.24.98.46,1.7.46,1.08,0,1.87-.56,1.87-2.03v-.65h-.02c-.32.54-.95.97-1.85.97-1.44,0-2.47-1.22-2.47-2.83,0-1.97,1.28-3.08,2.62-3.08,1.01,0,1.56.53,1.81,1.01h.02l.05-.88h.92ZM117.74,294.11c0-.18-.01-.34-.06-.48-.19-.61-.71-1.12-1.48-1.12-1.01,0-1.73.85-1.73,2.19,0,1.14.58,2.09,1.72,2.09.65,0,1.24-.41,1.46-1.08.06-.18.08-.38.08-.56v-1.04Z"/>
    <path class="cls-1" d="M125.79,294.68c0,2.15-1.49,3.08-2.89,3.08-1.57,0-2.78-1.15-2.78-2.99,0-1.94,1.27-3.08,2.88-3.08s2.79,1.21,2.79,2.99ZM121.18,294.74c0,1.27.73,2.23,1.76,2.23s1.76-.95,1.76-2.25c0-.98-.49-2.23-1.74-2.23s-1.79,1.15-1.79,2.25Z"/>
  </g>
  <rect class="cls-2" x="93.94" y="361.41" width="42.52" height="28.35"/>
</svg>