<?xml version="1.0" encoding="UTF-8"?>
<svg id="Laag_1" data-name="Laag 1" xmlns="http://www.w3.org/2000/svg" viewBox="0 0 392.32 591.31">
  <defs>
    <style>
      .cls-1 {
        fill: none;
        stroke: red;
        stroke-linecap: round;
        stroke-linejoin: round;
        stroke-width: 0px;
      }
    </style>
  </defs>
  <g id="p-1">
    <path class="cls-1" d="M11.62,591.31h28.35c.16,0,.28-.13.28-.28v-11.06c0-.28-.28,0,0,0h22.11c.28,0,0-.28,0,0v11.06c0,.16.13.28.28.28h22.68c.16,0,.28-.13.28-.28v-11.06c0-.28-.28,0,0,0h22.11c.28,0,0-.28,0,0v11.06c0,.16.13.28.28.28h22.68c.16,0,.28-.13.28-.28v-11.06c0-.28-.28,0,0,0h22.11c.28,0,0-.28,0,0v11.06c0,.16.13.28.28.28h39.69c.16,0,.28-.13.28-.28v-39.69c0-.16-.13-.28-.28-.28h-11.06c-.28,0,0,.28,0,0v-22.11c0-.28-.28,0,0,0h11.06c.16,0,.28-.13.28-.28v-22.68c0-.16-.13-.28-.28-.28h-11.06c-.28,0,0,.28,0,0v-22.11c0-.28-.28,0,0,0h11.06c.16,0,.28-.13.28-.28v-22.68c0-.16-.13-.28-.28-.28h-11.06c-.28,0,0,.28,0,0v-22.11c0-.28-.28,0,0,0h11.06c.16,0,.28-.13.28-.28v-39.69c0-.16-.13-.28-.28-.28h-39.69c-.16,0-.28.13-.28.28v11.06c0,.28.28,0,0,0h-22.11c-.28,0,0,.28,0,0v-11.06c0-.16-.13-.28-.28-.28h-22.68c-.16,0-.28.13-.28.28v11.06c0,.28.28,0,0,0h-22.11c-.28,0,0,.28,0,0v-11.06c0-.16-.13-.28-.28-.28h-22.68c-.16,0-.28.13-.28.28v11.06c0,.28.28,0,0,0h-22.11c-.28,0,0,.28,0,0v-11.06c0-.16-.13-.28-.28-.28H.28c-.16,0-.28.13-.28.28v39.69c0,.16.13.28.28.28h11.06c.28,0,0-.28,0,0v22.11c0,.28.28,0,0,0H.28c-.16,0-.28.13-.28.28v22.68c0,.16.13.28.28.28h11.06c.28,0,0-.28,0,0v22.11c0,.28.28,0,0,0H.28c-.16,0-.28.13-.28.28v22.68c0,.16.13.28.28.28h11.06c.28,0,0-.28,0,0v22.11c0,.28.28,0,0,0H.28c-.16,0-.28.13-.28.28v39.69c0,.16.13.28.28.28h11.34Z"/>
  </g>
  <g id="p-2">
    <path class="cls-1" d="M210.62,591.31h28.35c.16,0,.28-.13.28-.28v-11.06c0-.28-.28,0,0,0h22.11c.28,0,0-.28,0,0v11.06c0,.16.13.28.28.28h22.68c.16,0,.28-.13.28-.28v-11.06c0-.28-.28,0,0,0h22.11c.28,0,0-.28,0,0v11.06c0,.16.13.28.28.28h22.68c.16,0,.28-.13.28-.28v-11.06c0-.28-.28,0,0,0h22.11c.28,0,0-.28,0,0v11.06c0,.16.13.28.28.28h28.35c.16,0,.28-.13.28-.28v-39.4c0-.28-.28,0,0,0h11.06c.16,0,.28-.13.28-.28v-22.68c0-.16-.13-.28-.28-.28h-11.06c-.28,0,0,.28,0,0v-22.11c0-.28-.28,0,0,0h11.06c.16,0,.28-.13.28-.28v-22.68c0-.16-.13-.28-.28-.28h-11.06c-.28,0,0,.28,0,0v-22.11c0-.28-.28,0,0,0h11.06c.16,0,.28-.13.28-.28v-22.68c0-.16-.13-.28-.28-.28h-11.06c-.28,0,0,.28,0,0v-39.4c0-.16-.13-.28-.28-.28h-28.35c-.16,0-.28.13-.28.28v11.06c0,.28.28,0,0,0h-22.11c-.28,0,0,.28,0,0v-11.06c0-.16-.13-.28-.28-.28h-22.68c-.16,0-.28.13-.28.28v11.06c0,.28.28,0,0,0h-22.11c-.28,0,0,.28,0,0v-11.06c0-.16-.13-.28-.28-.28h-22.68c-.16,0-.28.13-.28.28v11.06c0,.28.28,0,0,0h-22.11c-.28,0,0,.28,0,0v-11.06c0-.16-.13-.28-.28-.28h-28.35c-.16,0-.28.13-.28.28v39.4c0,.28.28,0,0,0h-11.06c-.16,0-.28.13-.28.28v22.68c0,.16.13.28.28.28h11.06c.28,0,0-.28,0,0v22.11c0,.28.28,0,0,0h-11.06c-.16,0-.28.13-.28.28v22.68c0,.16.13.28.28.28h11.06c.28,0,0-.28,0,0v22.11c0,.28.28,0,0,0h-11.06c-.16,0-.28.13-.28.28v22.68c0,.16.13.28.28.28h11.06c.28,0,0-.28,0,0v39.4c0,.16.13.28.28.28Z"/>
  </g>
  <g id="p-3">
    <path class="cls-1" d="M210.62,392.32h28.35c.16,0,.28-.13.28-.28v-11.06c0-.28-.28,0,0,0h22.11c.28,0,0-.28,0,0v11.06c0,.16.13.28.28.28h22.68c.16,0,.28-.13.28-.28v-11.06c0-.28-.28,0,0,0h22.11c.28,0,0-.28,0,0v11.06c0,.16.13.28.28.28h22.68c.16,0,.28-.13.28-.28v-11.06c0-.28-.28,0,0,0h22.11c.28,0,0-.28,0,0v11.06c0,.16.13.28.28.28h28.35c.16,0,.28-.13.28-.28v-39.4c0-.28-.28,0,0,0h11.06c.16,0,.28-.13.28-.28v-22.68c0-.16-.13-.28-.28-.28h-11.06c-.28,0,0,.28,0,0v-22.11c0-.28-.28,0,0,0h11.06c.16,0,.28-.13.28-.28v-22.68c0-.16-.13-.28-.28-.28h-11.06c-.28,0,0,.28,0,0v-22.11c0-.28-.28,0,0,0h11.06c.16,0,.28-.13.28-.28v-22.68c0-.16-.13-.28-.28-.28h-11.06c-.28,0,0,.28,0,0v-39.4c0-.16-.13-.28-.28-.28h-28.35c-.16,0-.28.13-.28.28v11.06c0,.28.28,0,0,0h-22.11c-.28,0,0,.28,0,0v-11.06c0-.16-.13-.28-.28-.28h-22.68c-.16,0-.28.13-.28.28v11.06c0,.28.28,0,0,0h-22.11c-.28,0,0,.28,0,0v-11.06c0-.16-.13-.28-.28-.28h-22.68c-.16,0-.28.13-.28.28v11.06c0,.28.28,0,0,0h-22.11c-.28,0,0,.28,0,0v-11.06c0-.16-.13-.28-.28-.28h-28.35c-.16,0-.28.13-.28.28v39.4c0,.28.28,0,0,0h-11.06c-.16,0-.28.13-.28.28v22.68c0,.16.13.28.28.28h11.06c.28,0,0-.28,0,0v22.11c0,.28.28,0,0,0h-11.06c-.16,0-.28.13-.28.28v22.68c0,.16.13.28.28.28h11.06c.28,0,0-.28,0,0v22.11c0,.28.28,0,0,0h-11.06c-.16,0-.28.13-.28.28v22.68c0,.16.13.28.28.28h11.06c.28,0,0-.28,0,0v39.4c0,.16.13.28.28.28Z"/>
  </g>
  <g id="p-4">
    <path class="cls-1" d="M11.62,392.32h28.35c.16,0,.28-.13.28-.28v-11.06c0-.28-.28,0,0,0h22.11c.28,0,0-.28,0,0v11.06c0,.16.13.28.28.28h22.68c.16,0,.28-.13.28-.28v-11.06c0-.28-.28,0,0,0h22.11c.28,0,0-.28,0,0v11.06c0,.16.13.28.28.28h22.68c.16,0,.28-.13.28-.28v-11.06c0-.28-.28,0,0,0h22.11c.28,0,0-.28,0,0v11.06c0,.16.13.28.28.28h39.69c.16,0,.28-.13.28-.28v-39.69c0-.16-.13-.28-.28-.28h-11.06c-.28,0,0,.28,0,0v-22.11c0-.28-.28,0,0,0h11.06c.16,0,.28-.13.28-.28v-22.68c0-.16-.13-.28-.28-.28h-11.06c-.28,0,0,.28,0,0v-22.11c0-.28-.28,0,0,0h11.06c.16,0,.28-.13.28-.28v-22.68c0-.16-.13-.28-.28-.28h-11.06c-.28,0,0,.28,0,0v-22.11c0-.28-.28,0,0,0h11.06c.16,0,.28-.13.28-.28v-39.69c0-.16-.13-.28-.28-.28h-39.69c-.16,0-.28.13-.28.28v11.06c0,.28.28,0,0,0h-22.11c-.28,0,0,.28,0,0v-11.06c0-.16-.13-.28-.28-.28h-22.68c-.16,0-.28.13-.28.28v11.06c0,.28.28,0,0,0h-22.11c-.28,0,0,.28,0,0v-11.06c0-.16-.13-.28-.28-.28h-22.68c-.16,0-.28.13-.28.28v11.06c0,.28.28,0,0,0h-22.11c-.28,0,0,.28,0,0v-11.06c0-.16-.13-.28-.28-.28H.28c-.16,0-.28.13-.28.28v39.69c0,.16.13.28.28.28h11.06c.28,0,0-.28,0,0v22.11c0,.28.28,0,0,0H.28c-.16,0-.28.13-.28.28v22.68c0,.16.13.28.28.28h11.06c.28,0,0-.28,0,0v22.11c0,.28.28,0,0,0H.28c-.16,0-.28.13-.28.28v22.68c0,.16.13.28.28.28h11.06c.28,0,0-.28,0,0v22.11c0,.28.28,0,0,0H.28c-.16,0-.28.13-.28.28v39.69c0,.16.13.28.28.28h11.34Z"/>
  </g>
  <g id="p-5">
    <path class="cls-1" d="M11.62,181.99h28.06c.28,0,0-.28,0,0v11.06c0,.16.13.28.28.28h22.68c.16,0,.28-.13.28-.28v-11.06c0-.28-.28,0,0,0h22.11c.28,0,0-.28,0,0v11.06c0,.16.13.28.28.28h22.68c.16,0,.28-.13.28-.28v-11.06c0-.28-.28,0,0,0h22.11c.28,0,0-.28,0,0v11.06c0,.16.13.28.28.28h22.68c.16,0,.28-.13.28-.28v-11.06c0-.28-.28,0,0,0h28.06c.16,0,.28-.13.28-.28v-28.06c0-.28-.28,0,0,0h11.06c.16,0,.28-.13.28-.28v-22.68c0-.16-.13-.28-.28-.28h-11.06c-.28,0,0,.28,0,0v-22.11c0-.28-.28,0,0,0h11.06c.16,0,.28-.13.28-.28v-22.68c0-.16-.13-.28-.28-.28h-11.06c-.28,0,0,.28,0,0v-22.11c0-.28-.28,0,0,0h11.06c.16,0,.28-.13.28-.28v-22.68c0-.16-.13-.28-.28-.28h-11.06c-.28,0,0,.28,0,0V11.62c0-.16-.13-.28-.28-.28h-28.06c-.28,0,0,.28,0,0V.28c0-.16-.13-.28-.28-.28h-22.68c-.16,0-.28.13-.28.28v11.06c0,.28.28,0,0,0h-22.11c-.28,0,0,.28,0,0V.28c0-.16-.13-.28-.28-.28h-22.68c-.16,0-.28.13-.28.28v11.06c0,.28.28,0,0,0h-22.11c-.28,0,0,.28,0,0V.28c0-.16-.13-.28-.28-.28h-22.68c-.16,0-.28.13-.28.28v11.06c0,.28.28,0,0,0H11.62c-.16,0-.28.13-.28.28v28.06c0,.28.28,0,0,0H.28c-.16,0-.28.13-.28.28v22.68c0,.16.13.28.28.28h11.06c.28,0,0-.28,0,0v22.11c0,.28.28,0,0,0H.28c-.16,0-.28.13-.28.28v22.68c0,.16.13.28.28.28h11.06c.28,0,0-.28,0,0v22.11c0,.28.28,0,0,0H.28c-.16,0-.28.13-.28.28v22.68c0,.16.13.28.28.28h11.06c.28,0,0-.28,0,0v28.06c0,.16.13.28.28.28Z"/>
  </g>
  <g id="p-6">
    <path class="cls-1" d="M210.62,181.99h28.06c.28,0,0-.28,0,0v11.06c0,.16.13.28.28.28h22.68c.16,0,.28-.13.28-.28v-11.06c0-.28-.28,0,0,0h22.11c.28,0,0-.28,0,0v11.06c0,.16.13.28.28.28h22.68c.16,0,.28-.13.28-.28v-11.06c0-.28-.28,0,0,0h22.11c.28,0,0-.28,0,0v11.06c0,.16.13.28.28.28h22.68c.16,0,.28-.13.28-.28v-11.06c0-.28-.28,0,0,0h28.06c.16,0,.28-.13.28-.28v-28.06c0-.28-.28,0,0,0h11.06c.16,0,.28-.13.28-.28v-22.68c0-.16-.13-.28-.28-.28h-11.06c-.28,0,0,.28,0,0v-22.11c0-.28-.28,0,0,0h11.06c.16,0,.28-.13.28-.28v-22.68c0-.16-.13-.28-.28-.28h-11.06c-.28,0,0,.28,0,0v-22.11c0-.28-.28,0,0,0h11.06c.16,0,.28-.13.28-.28v-22.68c0-.16-.13-.28-.28-.28h-11.06c-.28,0,0,.28,0,0V11.62c0-.16-.13-.28-.28-.28h-28.06c-.28,0,0,.28,0,0V.28c0-.16-.13-.28-.28-.28h-22.68c-.16,0-.28.13-.28.28v11.06c0,.28.28,0,0,0h-22.11c-.28,0,0,.28,0,0V.28c0-.16-.13-.28-.28-.28h-22.68c-.16,0-.28.13-.28.28v11.06c0,.28.28,0,0,0h-22.11c-.28,0,0,.28,0,0V.28c0-.16-.13-.28-.28-.28h-22.68c-.16,0-.28.13-.28.28v11.06c0,.28.28,0,0,0h-28.06c-.16,0-.28.13-.28.28v28.06c0,.28.28,0,0,0h-11.06c-.16,0-.28.13-.28.28v22.68c0,.16.13.28.28.28h11.06c.28,0,0-.28,0,0v22.11c0,.28.28,0,0,0h-11.06c-.16,0-.28.13-.28.28v22.68c0,.16.13.28.28.28h11.06c.28,0,0-.28,0,0v22.11c0,.28.28,0,0,0h-11.06c-.16,0-.28.13-.28.28v22.68c0,.16.13.28.28.28h11.06c.28,0,0-.28,0,0v28.06c0,.16.13.28.28.28Z"/>
  </g>
</svg>